<svg width="149" height="53" viewBox="0 0 149 53" fill="none" xmlns="http://www.w3.org/2000/svg">
  <path d="M46.9865 0V41.8275L38.0437 47.7676L40.9257 52.35H31.7932L26.3412 42.1425L25.4091 40.398L31.0894 34.7121L32.0197 36.4575L34.9258 41.915L40.5877 37.9819V6.45958L6.34629 6.47248V37.9912L11.462 41.5512V20.2971L19.0076 12.5848V33.7201L35.9832 16.7168V27.8012L19.0076 44.7961L11.462 52.35V49.4541L0 41.8404V0.00828978L46.9865 0Z" fill="white" />
  <path d="M18.9937 12.5701L11.4464 20.2842V52.3472L18.9937 44.7915V33.7118C18.9937 26.6645 18.9937 19.6173 18.9937 12.5701Z" fill="white" />
  <path d="M35.9758 16.7039L18.9937 33.7117V44.7924L35.9758 27.7919V16.7039Z" fill="white" />
  <path d="M31.0913 34.7039L25.4045 40.398L26.5006 42.4511L32.1865 36.7588L31.0913 34.7039Z" fill="white" />
  <path d="M60.3376 38.0059H61.1629V43.8916H60.3376V38.0059ZM60.7429 38.0059H64.0423V38.7915H60.7429V38.0059ZM60.7429 40.6282H63.5965V41.4139H60.7429V40.6282Z" fill="white" />
  <path d="M69.1985 38.0013H70.0238V43.8908H69.1985V38.0013ZM69.5587 40.6163H71.5666C71.7232 40.6163 71.8623 40.5785 71.9839 40.503C72.1055 40.4275 72.1994 40.3206 72.2648 40.1816C72.3311 40.0425 72.3643 39.8822 72.3643 39.7017C72.3643 39.5211 72.3311 39.3609 72.2648 39.2218C72.1985 39.0827 72.1055 38.9759 71.9857 38.9003C71.866 38.8248 71.726 38.787 71.5666 38.787H69.5587V38.0013H71.5344C71.8743 38.0013 72.1736 38.0713 72.4306 38.2123C72.6876 38.3532 72.8884 38.5512 73.0293 38.8091C73.1712 39.067 73.2421 39.3646 73.2421 39.7017C73.2421 40.0388 73.1702 40.3363 73.0275 40.5942C72.8847 40.8521 72.6839 41.0511 72.426 41.1911C72.1681 41.3311 71.8706 41.402 71.5335 41.402H69.5577V40.6163H69.5587ZM71.1614 41.2196L71.983 41.0336L73.4889 43.8917H72.5098L71.1614 41.2196Z" fill="white" />
  <path d="M78.7474 38.0059H79.5727V43.8916H78.7474V38.0059ZM79.1481 38.0059H82.5275V38.7915H79.1481V38.0059ZM79.1481 40.5757H82.0827V41.3614H79.1481V40.5757ZM79.1481 43.1059H82.5275V43.8916H79.1481V43.1059Z" fill="white" />
  <path d="M87.8468 38.0059H88.6721V43.8916H87.8468V38.0059ZM88.2475 38.0059H91.627V38.7915H88.2475V38.0059ZM88.2475 40.5757H91.1821V41.3614H88.2475V40.5757ZM88.2475 43.1059H91.627V43.8916H88.2475V43.1059Z" fill="white" />
  <path d="M96.9453 38.0059H97.7706V43.8916H96.9453V38.0059ZM97.3589 43.1059H100.726V43.8916H97.3589V43.1059Z" fill="white" />
  <path d="M107.527 38.0059H108.231L110.401 43.8916H109.51L107.879 39.1434L106.247 43.8916H105.357L107.527 38.0059ZM106.357 41.8146H109.454V42.6002H106.357V41.8146Z" fill="white" />
  <path d="M115.436 38.0059H116.185L119.063 42.5552L118.967 42.6602V38.005H119.785V43.8861H119.027L116.157 39.4051L116.254 39.3001V43.8861H115.436V38.0059Z" fill="white" />
  <path d="M126.237 43.6807C125.928 43.5002 125.689 43.2432 125.518 42.9116C125.348 42.58 125.263 42.195 125.263 41.7584V40.1438C125.263 39.7062 125.348 39.3221 125.518 38.9906C125.689 38.659 125.928 38.402 126.237 38.2196C126.545 38.0372 126.904 37.946 127.312 37.946C127.649 37.946 127.959 38.0179 128.243 38.1625C128.527 38.3071 128.763 38.5116 128.953 38.7759C129.143 39.0403 129.272 39.347 129.34 39.6952H128.494C128.443 39.5119 128.357 39.3479 128.237 39.2033C128.118 39.0587 127.977 38.9473 127.815 38.869C127.653 38.7907 127.486 38.752 127.313 38.752C127.072 38.752 126.862 38.81 126.681 38.9261C126.499 39.0421 126.359 39.2052 126.26 39.4143C126.16 39.6233 126.11 39.8665 126.11 40.1447V41.7593C126.11 42.0347 126.159 42.277 126.26 42.4879C126.36 42.6989 126.5 42.861 126.681 42.9761C126.861 43.0912 127.072 43.1483 127.313 43.1483C127.488 43.1483 127.656 43.1115 127.816 43.0387C127.977 42.966 128.118 42.8582 128.237 42.7145C128.357 42.5708 128.443 42.4013 128.494 42.2042H129.34C129.273 42.5524 129.143 42.8582 128.951 43.1235C128.76 43.3887 128.522 43.5923 128.239 43.7369C127.956 43.8815 127.647 43.9534 127.313 43.9534C126.905 43.9515 126.546 43.8613 126.237 43.6807Z" fill="white" />
  <path d="M134.577 38.0059H135.403V43.8916H134.577V38.0059ZM134.978 38.0059H138.357V38.7915H134.978V38.0059ZM134.978 40.5757H137.913V41.3614H134.978V40.5757ZM134.978 43.1059H138.357V43.8916H134.978V43.1059Z" fill="white" />
  <path d="M143.677 38.0013H144.502V43.8908H143.677V38.0013ZM144.037 40.6163H146.045C146.201 40.6163 146.34 40.5785 146.462 40.503C146.584 40.4275 146.678 40.3206 146.743 40.1816C146.809 40.0425 146.842 39.8822 146.842 39.7017C146.842 39.5211 146.809 39.3609 146.743 39.2218C146.677 39.0827 146.584 38.9759 146.464 38.9003C146.344 38.8248 146.204 38.787 146.045 38.787H144.037V38.0013H146.013C146.352 38.0013 146.652 38.0713 146.909 38.2123C147.166 38.3532 147.367 38.5512 147.507 38.8091C147.649 39.067 147.72 39.3646 147.72 39.7017C147.72 40.0388 147.648 40.3363 147.506 40.5942C147.363 40.8521 147.162 41.0511 146.904 41.1911C146.646 41.3311 146.349 41.402 146.012 41.402H144.036V40.6163H144.037ZM145.64 41.2196L146.462 41.0336L147.968 43.8917H146.989L145.64 41.2196Z" fill="white" />
  <path d="M148.458 31.481H69.0926V32.309H148.458V31.481Z" fill="white" />
  <path d="M69.0521 22.1825L65.6689 17.2197H64.291V31.2451L60.0807 34.3178V11.0797C60.0475 11.0125 59.9554 10.8789 59.8053 10.679C59.6551 10.4792 59.4921 10.2489 59.3162 9.99008C59.1402 9.73125 58.9698 9.45953 58.8022 9.17584C58.6355 8.89214 58.5268 8.63239 58.4761 8.39844H64.291V13.3603H65.6689L69.0521 8.39844H73.8887L69.228 15.29L73.8896 22.1825H69.0521Z" fill="white" />
  <path d="M78.8764 22.1825V11.0797C78.8432 11.0125 78.7511 10.8789 78.6009 10.679C78.4508 10.4783 78.2878 10.2489 78.1119 9.99008C77.9368 9.73125 77.7655 9.45953 77.5979 9.17584C77.4312 8.89214 77.3225 8.63239 77.2718 8.39844H83.0866V13.3355H88.3995V8.39844H92.6098V22.1825H88.3995V17.2455H83.0866V22.1825H78.8764Z" fill="white" />
  <path d="M106.319 20.5282H101.257L100.631 22.1825H96.1946L100.48 11.1304C100.464 11.0806 100.38 10.9591 100.23 10.7666C100.08 10.574 99.9085 10.341 99.716 10.0647C99.5234 9.78836 99.3438 9.50466 99.1771 9.21268C99.0104 8.92069 98.9017 8.64897 98.8511 8.39844H106.044L111.382 22.1825H106.946L106.319 20.5282ZM102.71 16.6689H104.841L103.788 13.8365L102.71 16.6689Z" fill="white" />
  <path d="M124.465 8.39746H128.675V22.1815H124.514L119.176 15.4143V22.1815H119.151C119.134 22.2653 119.042 22.4072 118.875 22.608C118.709 22.8088 118.495 23.0298 118.236 23.2721C117.977 23.5143 117.689 23.7695 117.371 24.0366C117.054 24.3037 116.74 24.546 116.432 24.7633C116.122 24.9807 115.839 25.1603 115.58 25.3022C115.321 25.444 115.117 25.5149 114.965 25.5149V8.39746H119.075L124.464 15.1647V8.39746H124.465Z" fill="white" />
  <path d="M133.611 22.1825V11.0797C133.578 11.0125 133.486 10.8789 133.336 10.679C133.185 10.4783 133.022 10.2489 132.847 9.99008C132.672 9.73125 132.5 9.45953 132.333 9.17584C132.166 8.89214 132.057 8.63239 132.007 8.39844H137.821V13.3355H143.134V8.39844H147.344V22.1825H143.134V17.2455H137.821V22.1825H133.611Z" fill="white" />
</svg>
  