<svg width="68" height="75" viewBox="0 0 68 75" fill="none" xmlns="http://www.w3.org/2000/svg">
  <path d="M62.4939 44.4219C42.9085 43.6341 23.3359 43.6357 3.60931 44.4877C4.19338 44.0288 4.763 43.8684 5.31337 43.6854C8.98623 42.4708 12.7859 41.8835 16.6128 41.4439C17.8322 41.3043 17.8338 41.3267 17.8354 40.0848C17.8354 35.1924 17.821 30.3001 17.8531 25.4078C17.8579 24.6889 17.6509 24.4691 16.9513 24.5269C16.2341 24.5846 15.5088 24.5397 14.7868 24.5397C14.6263 24.5397 14.3888 24.6055 14.3182 24.5253C13.7807 23.9171 14.1626 23.1758 14.0711 22.4971C14.0085 22.0366 14.3728 22.0879 14.6648 22.0863C15.52 22.0847 16.3769 22.0687 17.2305 22.0911C17.6702 22.1024 17.8595 21.966 17.8419 21.5023C17.813 20.7545 17.8066 20.0036 17.8451 19.2575C17.8723 18.7167 17.6605 18.5787 17.1487 18.5835C14.5557 18.6076 11.9627 18.598 9.36972 18.5996C8.1342 18.5996 8.12297 18.5884 8.11976 17.3432C8.11816 16.3548 8.11816 15.3648 8.11976 14.3764C8.12137 13.1729 8.13741 13.1569 9.31677 13.1569C13.7807 13.1553 18.2462 13.1553 22.7101 13.1553C34.125 13.1569 45.54 13.1569 56.9565 13.1601C58.0749 13.1601 58.0765 13.1665 58.0797 14.2721C58.0829 15.368 58.0829 16.4639 58.0813 17.5598C58.0797 18.537 58.0315 18.5787 57.0223 18.5787C54.4293 18.5787 51.8347 18.6044 49.2433 18.5659C48.5357 18.5563 48.2581 18.7649 48.3592 19.4709C48.4009 19.7597 48.3672 20.0581 48.3704 20.3518C48.3849 22.0815 48.3849 22.0815 50.1547 22.0831C50.2349 22.0831 50.3152 22.0831 50.3954 22.0831C52.2824 22.0847 52.2711 22.0831 52.1652 23.999C52.1428 24.4065 52.024 24.5606 51.602 24.5477C50.7211 24.5204 49.837 24.5606 48.9561 24.5317C48.4988 24.5172 48.3528 24.6841 48.3544 25.1318C48.3624 30.3178 48.3592 35.5053 48.3431 40.6913C48.3415 41.1823 48.5309 41.3043 48.993 41.3572C52.499 41.7584 55.9889 42.2574 59.3954 43.2137C60.4625 43.5154 61.5295 43.8234 62.4939 44.4219ZM32.575 40.5501C36.5816 40.5533 40.0267 40.64 43.4636 40.8871C44.1456 40.9368 44.2611 40.7138 44.2579 40.104C44.2371 35.162 44.2306 30.2199 44.2611 25.2794C44.2659 24.591 44.006 24.5124 43.4203 24.514C36.5544 24.5285 29.69 24.5253 22.8241 24.4996C22.179 24.498 21.9592 24.6392 21.9624 25.3324C21.9945 30.2472 21.9977 35.162 21.9592 40.0768C21.9528 40.847 22.2175 40.9384 22.885 40.8871C26.2963 40.6239 29.7157 40.5646 32.575 40.5501ZM26.4777 22.1024C27.7854 22.1024 29.0915 22.0847 30.3992 22.112C30.8646 22.1216 31.0844 22.0221 31.0571 21.5006C31.0186 20.7561 31.0218 20.0068 31.0571 19.2607C31.0796 18.7552 30.9416 18.5595 30.3944 18.5643C27.8079 18.59 25.2197 18.5884 22.6331 18.5643C22.0811 18.5595 21.9528 18.7745 21.9752 19.2735C22.0089 19.9923 22.0137 20.716 21.972 21.4333C21.9415 21.9563 22.1084 22.128 22.6395 22.112C23.9168 22.0767 25.1972 22.1008 26.4777 22.1024ZM39.6319 22.104C40.9685 22.104 42.3035 22.0992 43.6402 22.1072C44.0012 22.1088 44.2643 22.0719 44.2515 21.6017C44.229 20.7481 44.2387 19.8913 44.2483 19.0376C44.2515 18.7023 44.1215 18.5579 43.7749 18.5595C41.076 18.5659 38.3788 18.5659 35.6799 18.5563C35.2434 18.5547 35.1456 18.7584 35.1568 19.1499C35.1792 19.9234 35.1953 20.7016 35.1504 21.4734C35.1199 21.982 35.3092 22.1216 35.7842 22.1136C37.0662 22.0895 38.3483 22.104 39.6319 22.104ZM50.243 17.7315C50.267 17.4828 50.1306 17.3945 49.9092 17.4186C49.699 17.4427 49.3941 17.3015 49.3637 17.6834C49.3444 17.9128 49.4712 18.0235 49.699 18.0123C49.9204 18.0027 50.1996 18.0941 50.243 17.7315ZM23.4354 18.0123C23.6456 18.0059 23.8847 18.0235 23.8799 17.7123C23.875 17.4058 23.636 17.425 23.4258 17.417C23.2284 17.409 23.0439 17.4315 23.0246 17.6802C23.0006 17.977 23.1995 18.0203 23.4354 18.0123ZM25.2181 17.4186C24.9902 17.4058 24.78 17.417 24.7945 17.7315C24.8057 17.9834 24.9678 18.0235 25.1764 18.0123C25.3849 18.0011 25.6304 18.0412 25.6481 17.7331C25.6641 17.4266 25.4411 17.4122 25.2181 17.4186ZM27.4179 17.6834C27.3971 17.3673 27.1612 17.4202 26.959 17.4154C26.7344 17.4106 26.5274 17.4347 26.5499 17.7379C26.5723 18.0476 26.805 18.0059 27.012 18.0091C27.2382 18.0123 27.4388 17.9866 27.4179 17.6834ZM29.1685 17.709C29.1589 17.3897 28.9278 17.4138 28.7112 17.4202C28.5251 17.425 28.3133 17.4026 28.3005 17.6737C28.286 17.9658 28.4754 18.0203 28.7208 18.0123C28.9375 18.0043 29.1669 18.03 29.1685 17.709ZM30.4843 17.4186C30.2628 17.409 30.0559 17.4186 30.0639 17.7251C30.0719 18.038 30.2997 18.0091 30.5083 18.0123C30.7266 18.0155 30.9432 18.0139 30.9319 17.7074C30.9207 17.3994 30.6929 17.4202 30.4843 17.4186ZM32.7018 17.7155C32.7018 17.4491 32.5125 17.401 32.2846 17.4138C32.0872 17.425 31.8353 17.3705 31.8241 17.6834C31.8145 17.9642 31.999 18.0203 32.2381 18.0107C32.4451 18.0043 32.6697 18.0396 32.7018 17.7155ZM34.0207 18.0123C34.2005 18.0219 34.4107 18.0123 34.401 17.6994C34.393 17.4427 34.2261 17.4058 34.0207 17.4154C33.8138 17.425 33.5683 17.3817 33.5474 17.6946C33.5249 18.0091 33.7528 18.0123 34.0207 18.0123ZM35.7794 18.0107C35.988 18.0251 36.1548 17.9786 36.1725 17.7315C36.1949 17.4074 35.9591 17.417 35.7425 17.417C35.5274 17.417 35.2932 17.4074 35.3108 17.7299C35.3269 18.0524 35.5804 17.9898 35.7794 18.0107ZM25.6513 14.0169C25.6304 13.7105 25.409 13.7185 25.1908 13.7088C24.9373 13.6976 24.7704 13.7843 24.7913 14.0651C24.8105 14.3218 25.0063 14.3218 25.2004 14.3154C25.417 14.309 25.6433 14.325 25.6513 14.0169ZM52.8857 17.7042C52.8841 18.0203 53.0991 18.0107 53.3237 18.0107C53.558 18.0107 53.7602 17.9866 53.7425 17.6818C53.7281 17.4218 53.5371 17.4154 53.343 17.417C53.128 17.4202 52.8969 17.3897 52.8857 17.7042ZM55.0278 17.4186C54.824 17.4026 54.6459 17.4282 54.6379 17.6898C54.6266 18.0011 54.8368 18.0139 55.0663 18.0107C55.2909 18.0075 55.5124 18.0027 55.4979 17.6914C55.4851 17.3673 55.2284 17.4363 55.0278 17.4186ZM56.4045 17.7427C56.435 18.0653 56.6789 17.9995 56.8827 18.0107C57.1426 18.0251 57.3079 17.9257 57.2598 17.6449C57.2068 17.3384 56.942 17.4315 56.7447 17.4154C56.5168 17.3978 56.3949 17.5053 56.4045 17.7427ZM15.0868 14.0041C15.0595 13.7024 14.8397 13.7121 14.6215 13.7105C14.376 13.7105 14.1915 13.7859 14.23 14.0747C14.2717 14.3924 14.5316 14.3057 14.729 14.3138C14.9376 14.3218 15.0964 14.2592 15.0868 14.0041ZM18.259 14.3106C18.3585 14.2977 18.6072 14.3411 18.6072 14.0169C18.6088 13.6976 18.3698 13.7185 18.158 13.7105C17.9622 13.7024 17.7697 13.7217 17.7456 13.9736C17.7183 14.2737 17.9125 14.3282 18.259 14.3106ZM20.3691 14.0233C20.3707 13.7442 20.1717 13.7121 19.9422 13.7121C19.716 13.7105 19.5074 13.7233 19.5154 14.0298C19.5218 14.2833 19.6935 14.3234 19.8957 14.3138C20.0995 14.3057 20.3386 14.3555 20.3691 14.0233ZM22.1261 14.0185C22.1245 13.7024 21.8998 13.7137 21.68 13.7153C21.489 13.7169 21.2853 13.7105 21.2692 13.9736C21.2532 14.2576 21.4201 14.3378 21.6768 14.317C21.887 14.3009 22.1261 14.3475 22.1261 14.0185ZM23.8943 13.98C23.8895 13.8131 23.7659 13.7153 23.5429 13.7169C23.3086 13.7185 23.0343 13.6559 23.031 14.0314C23.0294 14.2929 23.2075 14.3234 23.4097 14.3154C23.6151 14.3074 23.859 14.3667 23.8943 13.98ZM39.2533 18.0107C39.4827 18.0187 39.6993 18.0027 39.6897 17.6914C39.6817 17.4315 39.4955 17.4058 39.295 17.417C39.0928 17.4282 38.8361 17.3641 38.8216 17.6914C38.8072 18.0011 39.0254 18.0187 39.2533 18.0107ZM27.4131 14.0105C27.4228 13.6896 27.1885 13.7185 26.9815 13.7121C26.7569 13.704 26.5515 13.7329 26.5515 14.0266C26.5515 14.3394 26.7825 14.3138 26.9927 14.317C27.211 14.3202 27.426 14.3218 27.4131 14.0105ZM29.1701 13.9913C29.1332 13.6816 28.8925 13.7233 28.6856 13.7137C28.4288 13.7024 28.2555 13.8051 28.3037 14.0843C28.3566 14.3876 28.6182 14.3058 28.8203 14.3154C29.0434 14.3282 29.1765 14.2351 29.1701 13.9913ZM30.4875 14.3154C30.7041 14.3202 30.9239 14.3218 30.9255 14.0201C30.9271 13.7217 30.7185 13.704 30.4955 13.7169C30.2933 13.7297 30.0575 13.6928 30.0591 14.0121C30.0607 14.3154 30.2693 14.3218 30.4875 14.3154ZM32.6954 14.0217C32.6938 13.704 32.4643 13.7185 32.2477 13.7153C32.0134 13.7105 31.808 13.7538 31.8241 14.0522C31.8385 14.3122 32.0391 14.3154 32.2317 14.3138C32.4483 14.3122 32.6793 14.3378 32.6954 14.0217ZM33.9967 13.7121C33.7897 13.7217 33.5602 13.6976 33.5426 13.9993C33.5249 14.3009 33.7335 14.3234 33.955 14.3202C34.1603 14.317 34.3946 14.3555 34.4058 14.0426C34.4171 13.757 34.2309 13.704 33.9967 13.7121ZM36.1677 13.9415C36.1564 13.6832 35.9238 13.7153 35.712 13.7153C35.5194 13.7153 35.3253 13.7217 35.3108 13.9848C35.2932 14.2913 35.497 14.3154 35.7296 14.317C35.9591 14.3186 36.1645 14.309 36.1677 13.9415ZM41.0584 14.3138C41.2654 14.3314 41.4323 14.3041 41.4419 14.0378C41.4531 13.7201 41.2477 13.7137 41.0199 13.7153C40.7936 13.7169 40.5738 13.7265 40.5883 14.0362C40.6043 14.3603 40.8562 14.3009 41.0584 14.3138ZM49.7504 13.7105C49.4888 13.6944 49.3364 13.7955 49.3637 14.0779C49.3893 14.3555 49.6011 14.3154 49.7841 14.3186C50.0039 14.3218 50.2349 14.325 50.2173 14.0057C50.1996 13.6944 49.9606 13.7185 49.7504 13.7105ZM54.6443 14.0426C54.6652 14.3764 54.9171 14.2993 55.1176 14.309C55.3182 14.3186 55.4963 14.2881 55.4947 14.025C55.4915 13.6431 55.2091 13.7233 54.9797 13.7169C54.7566 13.7105 54.625 13.8019 54.6443 14.0426ZM57.2662 14.0073C57.2549 13.6864 57.0159 13.7217 56.8057 13.7105C56.5505 13.696 56.3869 13.7843 56.4141 14.0731C56.4398 14.3459 56.6452 14.3218 56.8313 14.3154C57.0415 14.309 57.2838 14.3378 57.2662 14.0073ZM20.361 17.693C20.3386 17.3817 20.1027 17.4202 19.8957 17.4154C19.7 17.4106 19.5138 17.4347 19.5058 17.6898C19.4962 17.9866 19.6983 18.0155 19.9294 18.0139C20.1589 18.0123 20.361 17.9947 20.361 17.693ZM21.6976 17.4122C21.4634 17.3994 21.258 17.4282 21.2724 17.7347C21.2837 17.9898 21.4634 18.0171 21.6639 18.0139C21.8741 18.0091 22.1132 18.0492 22.1261 17.7299C22.1389 17.417 21.9239 17.4042 21.6976 17.4122ZM39.4939 14.3282C39.5004 14.3282 39.6688 14.2881 39.6785 14.0346C39.6913 13.7201 39.4715 13.7137 39.2484 13.7121C39.019 13.7088 38.8056 13.7409 38.8216 14.0426C38.8393 14.3571 39.088 14.309 39.4939 14.3282ZM37.4481 14.317C37.6567 14.3106 37.8926 14.3459 37.9086 14.0298C37.9215 13.7891 37.7947 13.704 37.5685 13.7105C37.3278 13.7169 37.0646 13.6816 37.063 14.041C37.063 14.3058 37.254 14.317 37.4481 14.317ZM37.4802 17.417C37.2572 17.4154 37.0341 17.4186 37.0646 17.7395C37.0935 18.0556 37.3374 17.9995 37.5428 18.0107C37.7498 18.0219 37.9134 17.9882 37.9134 17.7251C37.9118 17.417 37.7097 17.3994 37.4802 17.417ZM40.585 17.6866C40.585 17.9802 40.7744 18.0251 41.0103 18.0107C41.1884 18.0011 41.4066 18.0524 41.4371 17.7845C41.4692 17.5085 41.3103 17.4074 41.0552 17.4122C40.8466 17.417 40.6139 17.3721 40.585 17.6866ZM44.5724 18.0107C44.765 18.0107 44.9559 18.0107 44.9623 17.7395C44.9687 17.4315 44.7617 17.4138 44.5339 17.4154C44.3125 17.417 44.091 17.4106 44.1071 17.7299C44.1215 18.0556 44.3686 17.9979 44.5724 18.0107ZM18.6153 17.7315C18.6217 17.4876 18.4773 17.4154 18.2607 17.417C18.0216 17.4186 17.752 17.3721 17.7552 17.7411C17.7568 18.0075 17.951 18.0171 18.1451 18.0123C18.3521 18.0075 18.5912 18.0508 18.6153 17.7315ZM15.09 17.709C15.0868 17.3913 14.8574 17.4122 14.6423 17.4138C14.4514 17.4138 14.2589 17.4186 14.2332 17.6753C14.2043 17.9802 14.4001 18.0171 14.6375 18.0123C14.8574 18.0091 15.0788 18.0203 15.09 17.709ZM9.82863 17.6978C9.80777 17.3801 9.56548 17.4266 9.3601 17.4154C9.11299 17.4026 8.93007 17.478 8.97981 17.77C9.03116 18.0717 9.28147 17.9995 9.48365 18.0107C9.70347 18.0203 9.84468 17.9449 9.82863 17.6978ZM12.9447 13.7137C12.7409 13.7281 12.4906 13.6768 12.4762 13.9961C12.4617 14.3074 12.6816 14.3186 12.9094 14.3154C13.0939 14.3138 13.3009 14.3523 13.3298 14.0795C13.3587 13.7971 13.2095 13.696 12.9447 13.7137ZM48.0206 18.0107C48.2356 18.0091 48.4619 18.0332 48.4651 17.7123C48.4683 17.4555 48.3111 17.4042 48.1025 17.417C47.9035 17.4282 47.6468 17.3496 47.6147 17.6689C47.5842 17.9658 47.7832 18.0187 48.0206 18.0107ZM51.9887 17.701C51.9695 17.3865 51.7384 17.425 51.5266 17.4122C51.2699 17.3978 51.0982 17.4812 51.1351 17.7652C51.1752 18.0781 51.4336 17.9947 51.6341 18.0091C51.854 18.0235 51.9935 17.9481 51.9887 17.701ZM43.1957 17.7347C43.2069 17.494 43.077 17.4058 42.8539 17.4122C42.6213 17.4186 42.3453 17.3544 42.3469 17.7283C42.3469 17.9866 42.5266 18.0187 42.7271 18.0107C42.9309 18.0011 43.1732 18.0556 43.1957 17.7347ZM13.333 17.6962C13.3266 17.3641 13.0811 17.4218 12.8757 17.417C12.6784 17.4138 12.4826 17.4347 12.4778 17.6914C12.4714 18.0653 12.7586 17.9963 12.9896 18.0107C13.2175 18.0251 13.3459 17.9401 13.333 17.6962ZM11.1235 17.4154C10.9278 17.4106 10.7416 17.4122 10.7288 17.6818C10.7127 17.9882 10.9005 18.0203 11.1412 18.0107C11.3594 18.0011 11.5969 18.0187 11.5888 17.7042C11.5808 17.3913 11.3337 17.4218 11.1235 17.4154ZM44.9431 14.0233C44.919 13.7105 44.7024 13.7217 44.489 13.7153C44.2403 13.7089 44.0814 13.7923 44.1103 14.0731C44.136 14.3314 44.3317 14.3186 44.5163 14.3186C44.7329 14.317 44.9463 14.3138 44.9431 14.0233ZM43.178 14.0378C43.1909 13.818 43.0641 13.7121 42.8411 13.7153C42.6341 13.7185 42.387 13.6719 42.3501 13.9816C42.3212 14.2223 42.4544 14.325 42.6822 14.3122C42.8828 14.3025 43.1331 14.3747 43.178 14.0378ZM16.425 13.7137C16.194 13.7072 16.0094 13.7506 16.0207 14.0458C16.0303 14.3074 16.2068 14.3202 16.3977 14.3138C16.5983 14.3057 16.839 14.3491 16.8454 14.033C16.8534 13.7329 16.6465 13.7121 16.425 13.7137ZM11.5584 13.9848C11.515 13.696 11.2936 13.7217 11.085 13.7153C10.8219 13.7072 10.6935 13.8244 10.7368 14.0891C10.7882 14.3972 11.0417 14.3025 11.2294 14.3122C11.4476 14.3234 11.5728 14.2191 11.5584 13.9848ZM9.80617 14.0635C9.82382 13.8228 9.69224 13.7217 9.47081 13.7201C9.26222 13.7185 9.01993 13.6687 8.98142 13.9832C8.95254 14.2271 9.08572 14.325 9.31196 14.317C9.51414 14.3106 9.76284 14.3828 9.80617 14.0635ZM46.7001 17.6994C46.6888 17.3913 46.4658 17.4138 46.254 17.4122C46.0117 17.4106 45.84 17.4796 45.8705 17.7652C45.8978 18.0235 46.1 18.0075 46.2797 18.0107C46.4963 18.0171 46.7113 18.0075 46.7001 17.6994ZM16.0175 17.6978C16.0062 17.9385 16.141 18.0219 16.3576 18.0091C16.5534 17.9979 16.8069 18.0781 16.8502 17.7732C16.8871 17.5005 16.7283 17.3994 16.4732 17.4138C16.271 17.425 16.0367 17.3897 16.0175 17.6978ZM53.2949 13.7169C53.0895 13.7089 52.9178 13.749 52.9146 14.0041C52.9114 14.3186 53.1408 14.309 53.3574 14.3138C53.5628 14.3186 53.7345 14.2785 53.7361 14.0233C53.7377 13.7137 53.5147 13.7153 53.2949 13.7169ZM51.5427 13.7169C51.3004 13.7072 51.1287 13.7795 51.1511 14.0651C51.172 14.3234 51.3662 14.3202 51.5523 14.3202C51.7641 14.3186 51.9903 14.3234 51.9839 14.0137C51.9759 13.7105 51.7593 13.7121 51.5427 13.7169ZM48.0238 13.7169C47.7848 13.7089 47.605 13.7778 47.6355 14.0619C47.6676 14.3667 47.9099 14.3122 48.1089 14.317C48.3159 14.3234 48.4635 14.256 48.4571 14.0137C48.4507 13.7137 48.2405 13.7121 48.0238 13.7169ZM46.7033 13.9479C46.7049 13.7121 46.4883 13.7137 46.2716 13.7153C46.0855 13.7169 45.893 13.7137 45.8721 13.972C45.8464 14.2624 46.0197 14.3218 46.2604 14.3154C46.4738 14.3106 46.6953 14.3298 46.7033 13.9479Z" fill="white" />
  <path d="M50.7754 8.14093C38.9898 9.27696 27.2299 9.31868 15.438 8.15697C19.6211 3.33684 24.8488 0.551306 31.1997 0.076353C39.0268 -0.507711 45.5333 2.26659 50.7754 8.14093Z" fill="white" />
  <path d="M58.6672 12.324C42.2557 12.324 25.8441 12.324 9.43257 12.324C8.76506 12.324 8.09596 12.3144 7.42846 12.3208C6.60852 12.3289 5.9683 12.0063 5.57518 11.2827C5.02802 10.2734 4.50012 9.2545 3.98023 8.22918C3.7572 7.78953 3.7588 7.34346 4.14069 6.97441C4.48888 6.63905 4.90126 6.58449 5.32166 6.81074C7.44129 7.95319 9.78557 8.25485 12.109 8.5533C23.203 9.97977 34.3387 9.98779 45.4841 9.37966C49.6736 9.15181 53.8487 8.77955 57.9548 7.86494C58.948 7.64351 59.9252 7.37876 60.8125 6.85085C61.2442 6.59412 61.6967 6.60214 62.0689 6.96799C62.4332 7.32741 62.4717 7.76867 62.239 8.22116C61.7143 9.24327 61.2153 10.2798 60.6441 11.2747C60.2221 12.0112 59.5369 12.3979 58.6672 12.324Z" fill="white" />
  <path d="M17.1346 40.1986C15.5252 38.7432 14.3105 37.2366 13.2708 35.5887C10.2638 30.8247 9.16467 25.6339 9.78403 20.05C9.84661 19.482 10.0135 19.2862 10.6104 19.2991C12.5343 19.3392 14.4581 19.3328 16.382 19.2975C16.9693 19.2862 17.1699 19.4354 17.1538 20.0532C17.1185 21.3641 17.1554 21.3657 15.8349 21.3706C15.1674 21.3722 14.4983 21.3786 13.8308 21.3673C13.4601 21.3609 13.3109 21.5102 13.3173 21.892C13.335 22.8275 13.343 23.763 13.3141 24.6968C13.2996 25.183 13.5291 25.2809 13.9463 25.2729C14.8272 25.2552 15.7097 25.2713 16.5922 25.2616C16.9276 25.2584 17.1442 25.3082 17.1426 25.7334C17.1314 30.4829 17.1346 35.234 17.1346 40.1986Z" fill="white" />
  <path d="M49.1421 21.2423C48.9592 19.3055 48.9592 19.3055 50.8318 19.3087C52.3802 19.3104 53.9302 19.3408 55.477 19.2927C56.1092 19.2734 56.3515 19.4419 56.4301 20.0934C57.0158 24.9536 56.1621 29.5459 53.9334 33.8895C52.868 35.9642 51.4864 37.8159 49.8562 39.4782C49.6636 39.674 49.5192 39.9756 49.0924 39.9628C49.0924 39.459 49.0924 38.9615 49.0924 38.4625C49.0924 34.3516 49.1133 30.2391 49.0764 26.1282C49.0699 25.3965 49.301 25.1991 49.9845 25.2457C50.7547 25.2986 51.533 25.2633 52.3064 25.2633C52.5775 25.2633 52.8824 25.281 52.884 24.8927C52.8888 23.7999 52.8808 22.7056 52.868 21.6113C52.8664 21.4669 52.7332 21.3915 52.6064 21.3401C51.4543 21.308 50.2974 21.276 49.1421 21.2423Z" fill="white" />
  <path d="M67.396 56.7242C67.396 57.7207 67.404 58.977 67.3896 60.2334C67.3864 60.4805 67.534 60.8335 67.2195 60.9458C66.9339 61.0485 66.7654 60.7212 66.5857 60.5447C64.7982 58.7973 63.0204 57.0387 61.2345 55.2881C61.0692 55.1261 60.9168 54.8148 60.6713 54.9014C60.3568 55.0137 60.5092 55.3684 60.5124 55.609C60.5413 57.2104 60.3985 58.8166 60.6327 60.4115C60.6969 60.8544 60.498 60.9298 60.1482 60.8929C59.869 60.864 59.4743 61.0437 59.5224 60.4629C59.739 57.7945 59.7149 55.1261 59.5336 52.4561C59.524 52.3117 59.447 52.1079 59.6588 52.0485C59.8754 51.9875 60.0519 52.071 60.2236 52.2459C61.082 53.1155 61.9581 53.9676 62.8294 54.826C63.8531 55.8337 64.88 56.8398 65.9038 57.8474C66.0498 57.9918 66.1685 58.2389 66.4124 58.1314C66.6114 58.0432 66.5376 57.7993 66.536 57.626C66.5199 55.9701 66.6194 54.3126 66.4317 52.6614C66.3883 52.2812 66.3338 51.9843 66.8986 52.0036C67.3559 52.018 67.5821 52.0854 67.5099 52.6245C67.3415 53.897 67.4233 55.1822 67.396 56.7242Z" fill="white" />
  <path d="M44.946 52.0307C45.7402 52.0131 46.5457 51.8687 47.3175 52.1992C48.529 52.7175 49.1227 53.8279 48.8595 55.1083C48.6108 56.3182 47.4379 57.398 46.2906 57.3467C45.8012 57.3258 45.3712 57.5521 44.8898 57.5007C44.524 57.4606 44.5593 57.7767 44.5689 58.0062C44.5978 58.725 44.6026 59.4487 44.6957 60.1611C44.7647 60.6906 44.7133 60.9281 44.0811 60.9056C42.9162 60.8639 42.9627 60.9072 43.0237 59.7359C43.1457 57.3643 43.2179 54.9864 42.9515 52.6196C42.8905 52.0837 43.0125 51.9746 43.5067 52.0195C43.9816 52.0644 44.4646 52.0307 44.946 52.0307ZM44.5304 54.6815C44.532 54.6815 44.5336 54.6815 44.5352 54.6815C44.5352 55.2142 44.5464 55.7485 44.532 56.2813C44.5192 56.7193 44.6957 56.8878 45.145 56.8942C46.0884 56.9054 46.7479 56.538 47.056 55.7614C47.4796 54.6895 47.3143 53.3866 46.6532 52.8459C46.1093 52.4014 45.4466 52.3773 44.8305 52.5891C44.2849 52.7769 44.5978 53.332 44.54 53.722C44.4935 54.0365 44.5304 54.3622 44.5304 54.6815Z" fill="white" />
  <path d="M48.9036 60.811C50.4263 57.9597 51.7501 55.0762 53.1364 52.2249C53.2471 51.9971 53.3562 51.8125 53.6499 51.7949C54.0542 51.7692 54.1264 52.0933 54.2468 52.3421C55.3555 54.6462 56.4547 56.9552 57.557 59.2626C57.626 59.407 57.7271 59.5385 57.7752 59.6894C57.902 60.0825 58.5053 60.535 58.2357 60.7677C57.8426 61.1062 57.1671 60.8768 56.6135 60.8752C56.4226 60.8752 56.3568 60.7211 56.3359 60.5446C56.3167 60.3858 56.2974 60.2253 56.2477 60.0745C55.6091 58.1169 55.6059 58.1153 53.5263 58.1169C53.4188 58.1169 53.3129 58.1169 53.2054 58.1169C51.1195 58.1281 51.0328 58.1009 50.4199 60.0713C50.1327 60.9859 49.6866 60.9939 48.9036 60.811ZM51.6329 57.4478C52.708 57.4478 53.6354 57.4494 54.5629 57.4462C54.7811 57.4462 55.0427 57.4494 54.8838 57.106C54.4024 56.0614 53.9114 55.0233 53.345 53.8134C52.7273 55.126 52.201 56.2412 51.6329 57.4478Z" fill="white" />
  <path d="M41.8561 60.8928C41.1918 60.8928 40.6896 60.8848 40.1873 60.896C39.8825 60.9025 39.799 60.7372 39.7172 60.4724C38.9968 58.1121 38.9919 58.1137 36.5369 58.1169C34.4767 58.1201 34.3451 58.2212 33.7257 60.2991C33.5749 60.8046 32.9796 61.0806 32.5159 60.8768C32.2848 60.7741 32.3651 60.6489 32.4453 60.5029C33.9456 57.8008 35.1827 54.9704 36.553 52.2041C36.6605 51.9859 36.776 51.7805 37.0793 51.7917C37.458 51.8061 37.5446 52.1078 37.6682 52.3645C38.8459 54.8115 40.0157 57.2633 41.195 59.7087C41.3683 60.0633 41.5785 60.3986 41.8561 60.8928ZM36.7648 53.8488C36.1888 55.0233 35.6962 56.0133 35.2164 57.0098C35.0928 57.2665 35.0993 57.4671 35.4843 57.4607C36.3075 57.4462 37.1322 57.4446 37.9554 57.451C38.2827 57.4526 38.4159 57.3162 38.2763 57.0178C37.8078 56.0117 37.3248 55.0169 36.7648 53.8488Z" fill="white" />
  <path d="M15.3994 60.8141C15.186 60.8606 15.109 60.8911 15.0336 60.8895C14.5538 60.8863 14.0436 60.973 13.6007 60.8414C13.0937 60.6906 13.2878 60.0712 13.1081 59.6797C12.3989 58.1265 12.4262 58.1152 10.751 58.1152C10.5905 58.1152 10.4301 58.1152 10.2696 58.1152C8.06977 58.1152 7.91573 58.2324 7.29316 60.3568C7.16479 60.7933 6.44915 61.0853 6.06085 60.8719C5.833 60.7467 5.95815 60.5959 6.02875 60.4739C7.5531 57.8424 8.72122 55.0344 10.0931 52.3275C10.2247 52.0676 10.3146 51.7708 10.6965 51.7804C11.0864 51.79 11.1489 52.1286 11.2661 52.3741C12.3845 54.6991 13.4836 57.0337 14.6004 59.3604C14.8266 59.8385 15.1058 60.2878 15.3994 60.8141ZM12.0716 57.4541C11.4747 56.1962 10.9516 55.0954 10.3547 53.8374C9.78505 55.0152 9.30689 55.994 8.83836 56.976C8.70037 57.2648 8.68753 57.4718 9.12879 57.4606C10.0578 57.4381 10.9869 57.4541 12.0716 57.4541Z" fill="white" />
  <path d="M2.51663 51.9875C3.15845 51.9875 3.80028 51.9698 4.4389 52.0003C4.58492 52.0067 4.93151 51.8495 4.87855 52.2378C4.83523 52.5507 4.71649 52.8283 4.29449 52.7384C3.61094 52.5924 2.91937 52.6325 2.2262 52.6405C1.79938 52.6453 1.58918 52.7657 1.61325 53.239C1.64695 53.9049 1.64855 54.5756 1.61325 55.2415C1.58437 55.7983 1.83468 55.9379 2.3321 55.8898C2.81026 55.8448 3.29324 55.8224 3.77301 55.8336C4.00246 55.84 4.40681 55.5849 4.40039 56.1289C4.39558 56.6231 4.1565 56.7434 3.68475 56.66C3.18734 56.5717 2.67387 56.5813 2.17004 56.53C1.74483 56.4867 1.60523 56.676 1.61486 57.082C1.63251 57.9372 1.63732 58.7924 1.61325 59.6461C1.60042 60.1194 1.81222 60.2622 2.24385 60.2141C3.01244 60.1291 3.78263 60.0552 4.55283 59.9702C4.77105 59.9461 5.09357 59.7616 5.05024 60.1916C5.02297 60.4628 5.14491 60.9249 4.6475 60.9249C3.20499 60.9265 1.76248 60.8992 0.321573 60.8768C-0.0346416 60.872 -0.0153868 60.6393 0.0151001 60.3729C0.271831 58.1891 0.114583 55.9973 0.135443 53.8102C0.135443 53.7573 0.132234 53.7027 0.129025 53.6498C0.00226349 52.0179 0.00226353 52.0179 1.63251 52.0131C1.92614 52.0115 2.21978 52.0131 2.51342 52.0131C2.51663 52.0051 2.51663 51.9971 2.51663 51.9875Z" fill="white" />
  <path d="M18.2697 56.8701C18.2697 55.6699 18.2633 54.4681 18.2729 53.2679C18.2777 52.7945 18.1895 52.5747 17.6038 52.6549C16.9203 52.7496 16.2287 52.7945 15.5467 52.9181C15.343 52.955 14.9611 53.1748 14.9547 52.7672C14.9498 52.4399 14.8937 51.912 15.5628 51.981C16.118 52.0372 16.694 51.9361 17.2396 52.0259C18.9404 52.3035 20.63 51.9345 22.3261 51.9986C22.5459 52.0067 22.8491 51.8767 22.9262 52.2153C22.9775 52.4383 23.1139 52.7207 22.9422 52.902C22.7625 53.0914 22.4961 52.9261 22.2683 52.8796C19.7283 52.3661 19.7122 52.3661 19.7331 54.9478C19.7475 56.761 19.6224 58.5774 19.855 60.3841C19.8983 60.7227 19.8133 60.8992 19.4507 60.888C19.2373 60.8816 19.019 60.8559 18.812 60.8912C18.175 61.0019 18.0675 60.7403 18.1285 60.1467C18.2392 59.0604 18.2504 57.9644 18.3034 56.8717C18.2906 56.8701 18.2793 56.8701 18.2697 56.8701Z" fill="white" />
  <path d="M27.8475 64.7037C28.1251 63.9432 28.6449 63.587 28.9225 63.0414C29.2916 62.3145 29.4344 61.5812 29.4537 60.8191C29.5275 58.0961 29.6334 55.3699 29.3638 52.6518C29.3157 52.172 29.3975 51.9394 29.9318 52.0116C30.195 52.0469 30.4661 52.0276 30.7325 52.0164C31.0213 52.0036 31.1689 52.0549 31.1224 52.4159C30.8159 54.757 30.9732 57.1125 30.9748 59.46C30.978 61.7946 29.9286 63.4457 27.8475 64.7037Z" fill="white" />
  <path d="M44.0878 71.7188C43.239 72.4248 42.4014 72.5419 41.5462 71.9386C40.8193 71.4251 40.5192 70.5458 40.7326 69.6762C41.0776 68.2689 42.472 67.6785 43.7252 68.4037C43.8423 68.4711 43.9819 68.7872 44.1151 68.4471C44.2017 68.2256 44.3076 68.1293 44.5194 68.216C44.6991 68.2882 44.6815 68.4759 44.6815 68.6332C44.6735 69.9393 44.6959 71.247 44.6414 72.5515C44.6061 73.3891 43.8985 74.055 43.04 74.1994C42.1639 74.3471 41.2926 73.9411 40.9364 73.2207C40.8514 73.049 40.7439 72.8644 40.9605 72.7313C41.1723 72.6013 41.275 72.7505 41.3953 72.9238C41.8558 73.5833 42.4656 73.8882 43.2582 73.5576C44.0156 73.2383 44.221 72.6221 44.0878 71.7188ZM44.1038 70.2169C44.1167 69.3039 43.5021 68.5899 42.703 68.5915C41.9088 68.5931 41.2317 69.3151 41.222 70.1736C41.2108 71.0416 41.8494 71.7541 42.6629 71.7814C43.5005 71.8102 44.091 71.1684 44.1038 70.2169Z" fill="white" />
  <path d="M37.5189 69.3442C37.5189 69.7774 37.575 69.9603 37.5108 70.0293C36.9171 70.6727 37.3038 71.0803 37.8173 71.4879C37.9681 71.6066 38.1992 71.7639 37.9858 72.0126C37.7595 72.2773 37.6183 72.0302 37.4627 71.9034C37.4001 71.8537 37.3327 71.804 37.2862 71.7398C36.8674 71.1718 36.5 71.1429 35.9817 71.6949C35.2115 72.5132 34.2632 72.534 33.5844 71.8649C32.856 71.1445 32.8784 70.2443 33.7144 69.4051C34.1268 68.9912 34.3338 68.7088 33.8235 68.1825C33.3614 67.7059 33.5106 67.1058 34 66.6966C34.4541 66.3163 35.0013 66.2907 35.457 66.7207C35.9287 67.1652 36.0378 67.754 35.5741 68.2145C35.0719 68.7152 35.2596 69.0072 35.6896 69.3426C35.7314 69.3746 35.7699 69.4148 35.8036 69.4549C36.2898 70.047 36.7856 70.5155 37.5189 69.3442ZM34.7076 71.7783C35.1617 71.7783 36.1694 70.9969 36.1405 70.6663C36.1277 70.5283 34.8777 69.28 34.7413 69.2687C34.422 69.2447 33.6358 70.278 33.6438 70.7097C33.6551 71.3226 34.1091 71.7767 34.7076 71.7783ZM34.6964 66.9405C34.3081 66.9566 34.114 67.1924 34.1124 67.5486C34.1107 67.9305 34.3755 68.2835 34.6996 68.2867C35.0799 68.29 35.3286 67.9257 35.3174 67.5117C35.3062 67.1395 35.0783 66.9421 34.6964 66.9405Z" fill="white" />
  <path d="M25.3401 69.1628C25.3401 68.3092 25.3369 67.454 25.3433 66.6003C25.345 66.3917 25.3225 66.1334 25.6546 66.1703C25.9322 66.2008 25.852 66.4351 25.8664 66.6067C25.8729 66.687 25.8648 66.7672 25.868 66.8474C25.8825 67.2999 25.7445 67.8455 25.9499 68.1808C26.2307 68.6381 26.6671 68.0493 27.0779 68.0621C27.9556 68.0894 28.7049 68.6333 28.8317 69.6041C28.928 70.339 28.8782 71.0947 28.8862 71.8409C28.8878 72.0013 28.8766 72.181 28.6648 72.2035C28.4049 72.2292 28.3615 72.043 28.3615 71.8409C28.3583 71.2809 28.368 70.7193 28.3503 70.1593C28.3214 69.2061 27.8096 68.5964 27.0811 68.6141C26.3751 68.6317 25.9274 69.1853 25.8841 70.1368C25.86 70.6968 25.8761 71.2568 25.8696 71.8184C25.868 72.0029 25.8857 72.2147 25.6017 72.2067C25.3241 72.1987 25.3417 71.9901 25.3401 71.8055C25.3369 70.9246 25.3385 70.0437 25.3401 69.1628Z" fill="white" />
  <path d="M20.826 70.2234C20.826 70.7577 20.8244 71.2904 20.826 71.8248C20.826 72.0735 20.6062 72.3559 20.4875 72.1746C20.0815 71.5632 19.812 72.1088 19.5119 72.2211C18.5829 72.5677 17.5944 72.0317 17.2992 70.9647C17.0762 70.1544 17.2334 69.3184 17.1933 68.4953C17.1837 68.3059 17.2639 68.184 17.4629 68.1824C17.7212 68.1808 17.7501 68.3621 17.7485 68.5659C17.7469 69.1002 17.7388 69.6329 17.7517 70.1672C17.7758 71.1589 18.286 71.7895 19.0402 71.783C19.7686 71.7766 20.2356 71.1797 20.258 70.2025C20.2709 69.6698 20.2628 69.1355 20.2612 68.6012C20.2612 68.4102 20.2484 68.2097 20.5148 68.192C20.8389 68.1712 20.826 68.4022 20.826 68.622C20.826 69.1564 20.8276 69.6907 20.826 70.2234Z" fill="white" />
  <path d="M23.2316 72.2884C22.6427 72.2884 22.2352 72.1713 21.9014 71.8809C21.7602 71.7589 21.4682 71.6418 21.6928 71.3835C21.8501 71.2021 22.033 71.3305 22.1822 71.4557C22.508 71.7252 22.8802 71.8359 23.299 71.7846C23.6697 71.7397 23.9906 71.5904 24.0516 71.1893C24.1141 70.7785 23.7691 70.6566 23.4691 70.5427C23.0712 70.3918 22.6556 70.2843 22.2657 70.1191C21.9046 69.965 21.6543 69.7035 21.6559 69.2654C21.6591 68.8242 21.8437 68.5016 22.2191 68.277C22.8353 67.9063 23.8558 67.9946 24.3147 68.4663C24.4222 68.5771 24.5843 68.6878 24.4639 68.8675C24.3243 69.0761 24.1671 69.0167 24.0002 68.8675C23.6055 68.5145 23.1434 68.4583 22.6556 68.6252C22.386 68.7183 22.1983 68.9044 22.1935 69.2109C22.1886 69.4997 22.386 69.6329 22.6235 69.7195C22.9476 69.8399 23.283 69.9345 23.6007 70.0709C24.151 70.3084 24.7303 70.5748 24.5602 71.3305C24.3869 72.0927 23.7643 72.2547 23.2316 72.2884Z" fill="white" />
  <path d="M14.9504 68.0427C15.3997 68.0475 15.7896 68.1294 16.1073 68.4022C16.2485 68.5225 16.5406 68.6348 16.3127 68.8964C16.1571 69.0761 16.003 68.9766 15.8378 68.8354C15.5169 68.561 15.127 68.484 14.713 68.5626C14.3744 68.6268 14.1097 68.7905 14.0727 69.1707C14.0358 69.5494 14.3182 69.6666 14.6007 69.7709C15.0002 69.9201 15.4126 70.0356 15.7961 70.2169C16.1988 70.4063 16.5037 70.7047 16.4507 71.2118C16.401 71.6867 16.1218 71.9932 15.6934 72.1536C14.9906 72.4152 14.3295 72.3125 13.7342 71.8536C13.5962 71.7477 13.3924 71.6097 13.5529 71.3979C13.6957 71.2085 13.8818 71.2759 14.0358 71.4187C14.3712 71.7332 14.7723 71.8456 15.2152 71.7734C15.5409 71.7204 15.8442 71.592 15.9084 71.2134C15.9806 70.7914 15.6581 70.6662 15.3548 70.5523C15.1061 70.4576 14.8445 70.3966 14.5942 70.3052C13.9989 70.0886 13.3876 69.8431 13.54 69.0408C13.6909 68.2754 14.307 68.0893 14.9504 68.0427Z" fill="white" />
  <path d="M45.6312 70.1416C45.6312 69.6073 45.6424 69.073 45.628 68.5387C45.62 68.2354 45.9056 68.0782 46.0002 68.2226C46.3597 68.7665 46.6116 68.3044 46.9148 68.2081C47.1395 68.1375 47.3802 68.1102 47.616 68.0878C47.7765 68.0733 47.9402 68.0958 47.945 68.3285C47.9498 68.5322 47.8423 68.5852 47.6594 68.6269C46.3757 68.9189 46.1976 69.1468 46.196 70.4369C46.196 70.8637 46.2024 71.2921 46.1928 71.7189C46.188 71.9211 46.2441 72.1907 45.9264 72.2035C45.6055 72.2163 45.6376 71.9484 45.6344 71.743C45.6248 71.2103 45.6312 70.676 45.6312 70.1416Z" fill="white" />
  <path d="M50.2546 69.1932C50.253 68.3396 50.2498 67.4844 50.2578 66.6307C50.2594 66.4318 50.2129 66.1606 50.5418 66.1686C50.866 66.1783 50.8114 66.4494 50.8114 66.6468C50.8178 68.3284 50.8162 70.01 50.8114 71.6916C50.8114 71.8937 50.8676 72.1761 50.5659 72.1954C50.1937 72.2195 50.2594 71.9034 50.2578 71.6755C50.253 70.8476 50.2562 70.0196 50.2546 69.1932Z" fill="white" />
  <path d="M51.9549 69.1227C51.9533 68.2723 51.9517 67.4219 51.9565 66.5699C51.9582 66.3901 51.9357 66.1671 52.2117 66.1687C52.4861 66.1703 52.4668 66.3901 52.4668 66.5715C52.4684 68.3269 52.4668 70.0807 52.4636 71.8361C52.4636 71.9933 52.4668 72.1762 52.2518 72.1987C51.9838 72.2276 51.9582 72.0302 51.9565 71.8344C51.9549 70.9311 51.9565 70.0277 51.9549 69.1227Z" fill="white" />
  <path d="M30.2711 70.1657C30.2711 70.6968 30.2743 71.2295 30.2711 71.7606C30.2695 71.9756 30.2759 72.2211 29.9598 72.1987C29.6999 72.181 29.7127 71.9628 29.7127 71.7767C29.7095 70.7128 29.7095 69.6506 29.7111 68.5868C29.7111 68.3974 29.7143 68.1936 29.9823 68.1904C30.2326 68.1888 30.2743 68.3605 30.2727 68.5691C30.2663 69.1018 30.2695 69.6346 30.2711 70.1657Z" fill="white" />
  <path d="M48.6111 70.1447C48.6111 69.6136 48.6127 69.0841 48.6095 68.553C48.6079 68.346 48.64 68.1759 48.9064 68.1968C49.123 68.2128 49.139 68.3653 49.1374 68.5354C49.1358 69.6233 49.139 70.7112 49.1374 71.7991C49.1374 71.9852 49.1439 72.1986 48.8759 72.2002C48.5373 72.2018 48.6127 71.9322 48.6095 71.7381C48.6015 71.207 48.6063 70.6775 48.6063 70.1464C48.6079 70.1448 48.6095 70.1447 48.6111 70.1447Z" fill="white" />
  <path d="M49.1418 21.2423C50.2971 21.276 51.4524 21.3081 52.6061 21.3418C51.4508 21.337 50.2891 21.5376 49.1418 21.2423Z" fill="white" />
  <path d="M33.0464 25.2616C36.2267 25.2616 39.4085 25.2841 42.5888 25.2456C43.3397 25.236 43.5146 25.4766 43.5098 26.1987C43.4761 30.5551 43.4777 34.9115 43.5082 39.2679C43.513 39.9852 43.3349 40.1504 42.6048 40.1055C36.3037 39.7172 29.9993 39.6867 23.6998 40.1167C22.9488 40.1681 22.6857 40.0606 22.6937 39.2246C22.7386 34.8682 22.729 30.5118 22.7001 26.1554C22.6953 25.4622 22.8622 25.236 23.5859 25.244C26.7388 25.2841 29.8934 25.2616 33.0464 25.2616Z" fill="white" />
  <path d="M26.4988 19.312C27.5675 19.312 28.6345 19.3265 29.7032 19.304C30.1268 19.296 30.3418 19.3874 30.3305 19.8704C30.2824 21.698 30.5439 21.3482 28.8752 21.3691C27.1134 21.3915 25.35 21.3418 23.5897 21.3899C22.8709 21.4092 22.6109 21.1701 22.712 20.4785C22.7393 20.2956 22.7345 20.1031 22.7152 19.9185C22.6623 19.4099 22.9062 19.2879 23.3779 19.3024C24.4145 19.3329 25.4575 19.312 26.4988 19.312Z" fill="white" />
  <path d="M39.7074 19.3119C40.7472 19.3103 41.787 19.336 42.8251 19.3007C43.3514 19.2815 43.5199 19.4596 43.5039 19.9794C43.4525 21.6033 43.6996 21.353 42.1785 21.3658C40.3396 21.3818 38.4992 21.3497 36.6604 21.3834C36.0683 21.3947 35.8725 21.2198 35.8805 20.6165C35.8982 19.3151 35.8677 19.3135 37.1449 19.3135C38.0018 19.3119 38.8554 19.3135 39.7074 19.3119Z" fill="white" />
</svg>
  