<svg width="156" height="157" viewBox="0 0 156 157" fill="none" xmlns="http://www.w3.org/2000/svg">
  <path opacity="0.0714286" d="M137.542 39.5608C140.903 41.3215 142.893 44.914 142.605 48.6983L136.646 126.882C136.313 131.255 133.031 134.832 128.705 135.539L56.826 147.283C52.8688 147.929 48.9326 146.02 46.9892 142.513L7.35436 70.974C5.41093 67.4662 5.87892 63.1149 8.52393 60.1L56.5678 5.33626C59.4599 2.03967 64.2312 1.1509 68.1145 3.18545L137.542 39.5608Z" stroke="url(#paint0_linear_188_5060)" />
  <path opacity="0.142857" d="M147.902 65.5032C150.307 68.437 150.736 72.5207 148.993 75.8907L112.974 145.53C110.959 149.426 106.54 151.436 102.28 150.395L31.5315 133.106C27.6363 132.154 24.7585 128.859 24.3395 124.871L15.7937 43.5227C15.3748 39.5347 17.5049 35.7129 21.1172 33.9716L86.7271 2.34384C90.6776 0.43947 95.418 1.48662 98.1982 4.87782L147.902 65.5032Z" stroke="url(#paint1_linear_188_5060)" />
  <path opacity="0.214286" d="M147.304 93.4318C148.373 97.0729 147.173 101 144.252 103.421L83.9 153.444C80.5241 156.242 75.6716 156.365 72.1571 153.742L13.7839 110.169C10.5701 107.77 9.20804 103.612 10.3799 99.7769L34.2828 21.5552C35.4547 17.7203 38.9081 15.0348 42.9132 14.844L115.66 11.3791C120.04 11.1705 123.994 13.9874 125.229 18.1957L147.304 93.4318Z" stroke="url(#paint2_linear_188_5060)" />
  <path opacity="0.285714" d="M135.848 118.905C135.41 122.675 132.77 125.823 129.135 126.91L54.0455 149.362C49.8459 150.618 45.3326 148.835 43.1228 145.048L6.40492 82.1171C4.38357 78.6527 4.75428 74.2917 7.33134 71.2189L59.88 8.56266C62.4571 5.48991 66.6854 4.36736 70.4464 5.75741L138.766 31.0076C142.878 32.5273 145.417 36.6647 144.91 41.0206L135.848 118.905Z" stroke="url(#paint3_linear_188_5060)" />
  <path opacity="0.357143" d="M115.356 137.874C113.479 141.174 109.818 143.041 106.045 142.62L28.1581 133.934C23.8027 133.448 20.3456 130.044 19.7908 125.696L10.5681 53.4101C10.0604 49.431 12.1057 45.5611 15.6789 43.7395L88.5158 6.6088C92.0891 4.78722 96.4205 5.40645 99.3396 8.15619L152.37 58.1096C155.56 61.1148 156.28 65.9136 154.113 69.7245L115.356 137.874Z" stroke="url(#paint4_linear_188_5060)" />
  <path opacity="0.428571" d="M89.0839 147.326C86.0664 149.63 81.9664 149.917 78.6576 148.055L10.3548 109.611C6.53562 107.462 4.6828 102.978 5.87011 98.7594L25.6114 28.6129C26.698 24.7518 30.0925 21.989 34.0937 21.709L115.639 16.004C119.64 15.7241 123.386 17.9873 124.999 21.6595L154.306 88.3746C156.069 92.3871 154.857 97.085 151.374 99.7454L89.0839 147.326Z" stroke="url(#paint5_linear_188_5060)" />
  <path opacity="0.5" d="M61.2074 145.757C57.53 146.699 53.6445 145.36 51.3263 142.353L3.46663 80.2636C0.790438 76.7917 0.835935 71.9398 3.57682 68.5201L49.1429 11.668C51.6511 8.53854 55.8544 7.32229 59.6466 8.6287L136.939 35.2557C140.731 36.5621 143.295 40.1097 143.345 44.1206L144.268 116.988C144.323 121.371 141.373 125.222 137.128 126.31L61.2074 145.757Z" stroke="url(#paint6_linear_188_5060)" />
  <path opacity="0.571429" d="M36.1578 133.414C32.4062 132.844 29.3538 130.094 28.3948 126.421L8.58752 50.5572C7.47979 46.3145 9.41764 41.8645 13.2775 39.7874L77.4212 5.26927C80.9523 3.36907 85.2958 3.89217 88.2756 6.57647L149.027 61.3049C152.007 63.9892 152.981 68.2564 151.461 71.9685L123.854 139.401C122.193 143.458 117.972 145.852 113.639 145.193L36.1578 133.414Z" stroke="url(#paint7_linear_188_5060)" />
  <path opacity="0.642857" d="M17.9198 112.259C14.6904 110.269 12.9555 106.546 13.507 102.791L24.9022 25.214C25.5395 20.8749 29.063 17.5351 33.4288 17.1319L105.95 10.4335C109.943 10.0648 113.737 12.2434 115.431 15.8782L149.981 90.0093C151.675 93.6441 150.905 97.9519 148.056 100.775L96.3117 152.052C93.1966 155.139 88.3747 155.692 84.6426 153.392L17.9198 112.259Z" stroke="url(#paint8_linear_188_5060)" />
  <path opacity="0.714286" d="M9.39489 85.6575C7.2001 82.563 7.05687 78.4594 9.03056 75.2193L49.817 8.26305C52.0984 4.51772 56.6471 2.82067 60.8241 4.15643L130.195 26.3406C134.014 27.562 136.655 31.0501 136.795 35.0575L139.648 116.805C139.788 120.812 137.397 124.476 133.672 125.961L66.0169 152.932C61.9432 154.556 57.2873 153.181 54.7502 149.604L9.39489 85.6575Z" stroke="url(#paint9_linear_188_5060)" />
  <path opacity="0.785714" d="M11.9379 57.8392C11.1259 54.1322 12.597 50.2981 15.6796 48.0869L79.3722 2.39804C82.9348 -0.157553 87.7839 0.0583409 91.1068 2.92045L146.3 50.4608C149.339 53.0781 150.408 57.3216 148.971 61.0656L119.673 137.428C118.237 141.172 114.604 143.61 110.596 143.521L37.784 141.9C33.4004 141.803 29.6525 138.717 28.7141 134.433L11.9379 57.8392Z" stroke="url(#paint10_linear_188_5060)" />
  <path opacity="0.857143" d="M25.1421 33.2281C25.8427 29.4971 28.6956 26.5413 32.398 25.7106L108.869 8.55311C113.146 7.59355 117.524 9.68671 119.464 13.6189L151.705 78.9595C153.48 82.5566 152.806 86.8812 150.021 89.7668L93.2324 148.602C90.4472 151.488 86.1509 152.313 82.4959 150.664L16.1024 120.707C12.1068 118.904 9.86319 114.6 10.6724 110.29L25.1421 33.2281Z" stroke="url(#paint11_linear_188_5060)" />
  <path opacity="0.928571" d="M46.9072 15.735C49.0099 12.5732 52.7924 10.9669 56.5263 11.6498L133.618 25.7508C137.929 26.5393 141.14 30.1756 141.391 34.5521L145.551 107.306C145.78 111.311 143.47 115.028 139.778 116.596L64.5303 148.553C60.8385 150.121 56.5607 149.201 53.8404 146.254L4.42182 92.7208C1.44906 89.5006 1.0653 84.6634 3.49297 81.0131L46.9072 15.735Z" stroke="url(#paint12_linear_188_5060)" />
  <path d="M73.7741 8.13934C76.945 6.05064 81.055 6.05064 84.2259 8.13934L149.682 51.2562C153.342 53.6671 154.878 58.2689 153.399 62.3947L128.815 130.993C127.462 134.768 123.883 137.288 119.872 137.288H38.1278C34.1168 137.288 30.538 134.768 29.1848 130.993L4.60088 62.3947C3.1223 58.2689 4.65803 53.6671 8.31803 51.2562L73.7741 8.13934Z" stroke="url(#paint13_linear_188_5060)" />
  <defs>
    <linearGradient id="paint0_linear_188_5060" x1="55.8082" y1="36.4558" x2="102.85" y2="121.279" gradientUnits="userSpaceOnUse">
      <stop offset="0.166667" stop-color="#876CF5" stop-opacity="0" />
      <stop offset="0.520833" stop-color="#1FDBFA" stop-opacity="0.6" />
      <stop offset="1" stop-color="#876CF5" stop-opacity="0.36" />
    </linearGradient>
    <linearGradient id="paint1_linear_188_5060" x1="73.8764" y1="30.6917" x2="84.0212" y2="127.165" gradientUnits="userSpaceOnUse">
      <stop offset="0.166667" stop-color="#876CF5" stop-opacity="0" />
      <stop offset="0.520833" stop-color="#1FDBFA" stop-opacity="0.6" />
      <stop offset="1" stop-color="#876CF5" stop-opacity="0.36" />
    </linearGradient>
    <linearGradient id="paint2_linear_188_5060" x1="92.7593" y1="32.4498" x2="64.3859" y2="125.209" gradientUnits="userSpaceOnUse">
      <stop offset="0.166667" stop-color="#876CF5" stop-opacity="0" />
      <stop offset="0.520833" stop-color="#1FDBFA" stop-opacity="0.6" />
      <stop offset="1" stop-color="#876CF5" stop-opacity="0.36" />
    </linearGradient>
    <linearGradient id="paint3_linear_188_5060" x1="109.454" y1="41.4497" x2="47.0951" y2="115.73" gradientUnits="userSpaceOnUse">
      <stop offset="0.166667" stop-color="#876CF5" stop-opacity="0" />
      <stop offset="0.520833" stop-color="#1FDBFA" stop-opacity="0.6" />
      <stop offset="1" stop-color="#876CF5" stop-opacity="0.36" />
    </linearGradient>
    <linearGradient id="paint4_linear_188_5060" x1="121.308" y1="56.2605" x2="34.9005" y2="100.265" gradientUnits="userSpaceOnUse">
      <stop offset="0.166667" stop-color="#876CF5" stop-opacity="0" />
      <stop offset="0.520833" stop-color="#1FDBFA" stop-opacity="0.6" />
      <stop offset="1" stop-color="#876CF5" stop-opacity="0.36" />
    </linearGradient>
    <linearGradient id="paint5_linear_188_5060" x1="126.434" y1="74.5278" x2="29.713" y2="81.2879" gradientUnits="userSpaceOnUse">
      <stop offset="0.166667" stop-color="#876CF5" stop-opacity="0" />
      <stop offset="0.520833" stop-color="#1FDBFA" stop-opacity="0.6" />
      <stop offset="1" stop-color="#876CF5" stop-opacity="0.36" />
    </linearGradient>
    <linearGradient id="paint6_linear_188_5060" x1="124.02" y1="93.3472" x2="32.3351" y2="61.7934" gradientUnits="userSpaceOnUse">
      <stop offset="0.166667" stop-color="#876CF5" stop-opacity="0" />
      <stop offset="0.520833" stop-color="#1FDBFA" stop-opacity="0.6" />
      <stop offset="1" stop-color="#876CF5" stop-opacity="0.36" />
    </linearGradient>
    <linearGradient id="paint7_linear_188_5060" x1="114.447" y1="109.727" x2="42.3617" y2="44.853" gradientUnits="userSpaceOnUse">
      <stop offset="0.166667" stop-color="#876CF5" stop-opacity="0" />
      <stop offset="0.520833" stop-color="#1FDBFA" stop-opacity="0.6" />
      <stop offset="1" stop-color="#876CF5" stop-opacity="0.36" />
    </linearGradient>
    <linearGradient id="paint8_linear_188_5060" x1="99.2388" y1="121.061" x2="58.2294" y2="33.1603" gradientUnits="userSpaceOnUse">
      <stop offset="0.166667" stop-color="#876CF5" stop-opacity="0" />
      <stop offset="0.520833" stop-color="#1FDBFA" stop-opacity="0.6" />
      <stop offset="1" stop-color="#876CF5" stop-opacity="0.36" />
    </linearGradient>
    <linearGradient id="paint9_linear_188_5060" x1="80.8127" y1="125.551" x2="77.4255" y2="28.6042" gradientUnits="userSpaceOnUse">
      <stop offset="0.166667" stop-color="#876CF5" stop-opacity="0" />
      <stop offset="0.520833" stop-color="#1FDBFA" stop-opacity="0.6" />
      <stop offset="1" stop-color="#876CF5" stop-opacity="0.36" />
    </linearGradient>
    <linearGradient id="paint10_linear_188_5060" x1="62.0984" y1="122.479" x2="96.8749" y2="31.9282" gradientUnits="userSpaceOnUse">
      <stop offset="0.166667" stop-color="#876CF5" stop-opacity="0" />
      <stop offset="0.520833" stop-color="#1FDBFA" stop-opacity="0.6" />
      <stop offset="1" stop-color="#876CF5" stop-opacity="0.36" />
    </linearGradient>
    <linearGradient id="paint11_linear_188_5060" x1="46.0714" y1="112.336" x2="113.458" y2="42.5895" gradientUnits="userSpaceOnUse">
      <stop offset="0.166667" stop-color="#876CF5" stop-opacity="0" />
      <stop offset="0.520833" stop-color="#1FDBFA" stop-opacity="0.6" />
      <stop offset="1" stop-color="#876CF5" stop-opacity="0.36" />
    </linearGradient>
    <linearGradient id="paint12_linear_188_5060" x1="35.2797" y1="96.7337" x2="124.543" y2="58.8626" gradientUnits="userSpaceOnUse">
      <stop offset="0.166667" stop-color="#876CF5" stop-opacity="0" />
      <stop offset="0.520833" stop-color="#1FDBFA" stop-opacity="0.6" />
      <stop offset="1" stop-color="#876CF5" stop-opacity="0.36" />
    </linearGradient>
    <linearGradient id="paint13_linear_188_5060" x1="31.439" y1="78.1529" x2="128.396" y2="78.1529" gradientUnits="userSpaceOnUse">
      <stop offset="0.166667" stop-color="#876CF5" stop-opacity="0" />
      <stop offset="0.520833" stop-color="#1FDBFA" stop-opacity="0.6" />
      <stop offset="1" stop-color="#876CF5" stop-opacity="0.36" />
    </linearGradient>
  </defs>
</svg>
  